<svg width="32" height="32" viewBox="0 0 32 32" fill="none" xmlns="http://www.w3.org/2000/svg">
<path d="M12.8889 28.4444C13.6253 28.4444 14.2222 27.8475 14.2222 27.1111C14.2222 26.3747 13.6253 25.7778 12.8889 25.7778C12.1525 25.7778 11.5555 26.3747 11.5555 27.1111C11.5555 27.8475 12.1525 28.4444 12.8889 28.4444Z" fill="#333333" stroke="#6327FE" stroke-width="2" stroke-linecap="round" stroke-linejoin="round"/>
<path d="M25.3333 28.4444C26.0697 28.4444 26.6667 27.8475 26.6667 27.1111C26.6667 26.3747 26.0697 25.7778 25.3333 25.7778C24.597 25.7778 24 26.3747 24 27.1111C24 27.8475 24.597 28.4444 25.3333 28.4444Z" fill="#333333" stroke="#6327FE" stroke-width="2" stroke-linecap="round" stroke-linejoin="round"/>
<path d="M2.66669 2.66666H7.51517L10.7637 18.5359C10.8745 19.0815 11.1781 19.5717 11.6213 19.9205C12.0645 20.2694 12.619 20.4547 13.1879 20.444H24.9697C25.5386 20.4547 26.0931 20.2694 26.5363 19.9205C26.9795 19.5717 27.2831 19.0815 27.394 18.5359L29.3334 8.59245H8.72729" stroke="#6327FE" stroke-width="2" stroke-linecap="round" stroke-linejoin="round"/>
</svg>
